<?xml version="1.0" encoding="utf-8" standalone="no"?>
<!DOCTYPE svg PUBLIC "-//W3C//DTD SVG 1.1//EN"
  "http://www.w3.org/Graphics/SVG/1.1/DTD/svg11.dtd">
<svg xmlns:xlink="http://www.w3.org/1999/xlink" width="677.018125pt" height="395.785pt" viewBox="0 0 677.018125 395.785" xmlns="http://www.w3.org/2000/svg" version="1.1">
 <metadata>
  <rdf:RDF xmlns:dc="http://purl.org/dc/elements/1.1/" xmlns:cc="http://creativecommons.org/ns#" xmlns:rdf="http://www.w3.org/1999/02/22-rdf-syntax-ns#">
   <cc:Work>
    <dc:type rdf:resource="http://purl.org/dc/dcmitype/StillImage"/>
    <dc:date>2026-06-18T15:04:58.579837</dc:date>
    <dc:format>image/svg+xml</dc:format>
    <dc:creator>
     <cc:Agent>
      <dc:title>Matplotlib v3.11.0, https://matplotlib.org/</dc:title>
     </cc:Agent>
    </dc:creator>
   </cc:Work>
  </rdf:RDF>
 </metadata>
 <defs>
  <style type="text/css">*{stroke-linejoin: round; stroke-linecap: butt}</style>
 </defs>
 <g id="figure_1">
  <g id="patch_1">
   <path d="M 0 395.785 
L 677.018125 395.785 
L 677.018125 0 
L 0 0 
z
" style="fill: #ffffff"/>
  </g>
  <g id="axes_1">
   <g id="patch_2">
    <path d="M 61.678672 348.585 
L 663.455625 348.585 
L 663.455625 33.36 
L 61.678672 33.36 
z
" style="fill: #ffffff"/>
   </g>
   <g id="matplotlib.axis_1">
    <g id="xtick_1">
     <g id="line2d_1">
      <path d="M 61.678672 348.585 
L 61.678672 33.36 
" clip-path="url(#pe7d57135ec)" style="fill: none; stroke: #e5e7eb; stroke-linecap: square"/>
     </g>
     <g id="line2d_2">
      <defs>
       <path id="m962a59e91a" d="M 0 0 
L 0 3.5 
" style="stroke: #374151; stroke-width: 0.8"/>
      </defs>
      <g>
       <use xlink:href="#m962a59e91a" x="61.678672" y="348.585" style="fill: #374151; stroke: #374151; stroke-width: 0.8"/>
      </g>
     </g>
     <g id="text_1">
      <text style="font-size: 10px; font-family: 'DejaVu Sans'; text-anchor: middle; fill: #374151" x="61.678672" y="363.182656" transform="rotate(-0 61.678672 363.182656)">1</text>
     </g>
    </g>
    <g id="xtick_2">
     <g id="line2d_3">
      <path d="M 128.542778 348.585 
L 128.542778 33.36 
" clip-path="url(#pe7d57135ec)" style="fill: none; stroke: #e5e7eb; stroke-linecap: square"/>
     </g>
     <g id="line2d_4">
      <g>
       <use xlink:href="#m962a59e91a" x="128.542778" y="348.585" style="fill: #374151; stroke: #374151; stroke-width: 0.8"/>
      </g>
     </g>
     <g id="text_2">
      <text style="font-size: 10px; font-family: 'DejaVu Sans'; text-anchor: middle; fill: #374151" x="128.542778" y="363.182656" transform="rotate(-0 128.542778 363.182656)">2</text>
     </g>
    </g>
    <g id="xtick_3">
     <g id="line2d_5">
      <path d="M 262.27099 348.585 
L 262.27099 33.36 
" clip-path="url(#pe7d57135ec)" style="fill: none; stroke: #e5e7eb; stroke-linecap: square"/>
     </g>
     <g id="line2d_6">
      <g>
       <use xlink:href="#m962a59e91a" x="262.27099" y="348.585" style="fill: #374151; stroke: #374151; stroke-width: 0.8"/>
      </g>
     </g>
     <g id="text_3">
      <text style="font-size: 10px; font-family: 'DejaVu Sans'; text-anchor: middle; fill: #374151" x="262.27099" y="363.182656" transform="rotate(-0 262.27099 363.182656)">4</text>
     </g>
    </g>
    <g id="xtick_4">
     <g id="line2d_7">
      <path d="M 395.999201 348.585 
L 395.999201 33.36 
" clip-path="url(#pe7d57135ec)" style="fill: none; stroke: #e5e7eb; stroke-linecap: square"/>
     </g>
     <g id="line2d_8">
      <g>
       <use xlink:href="#m962a59e91a" x="395.999201" y="348.585" style="fill: #374151; stroke: #374151; stroke-width: 0.8"/>
      </g>
     </g>
     <g id="text_4">
      <text style="font-size: 10px; font-family: 'DejaVu Sans'; text-anchor: middle; fill: #374151" x="395.999201" y="363.182656" transform="rotate(-0 395.999201 363.182656)">6</text>
     </g>
    </g>
    <g id="xtick_5">
     <g id="line2d_9">
      <path d="M 529.727413 348.585 
L 529.727413 33.36 
" clip-path="url(#pe7d57135ec)" style="fill: none; stroke: #e5e7eb; stroke-linecap: square"/>
     </g>
     <g id="line2d_10">
      <g>
       <use xlink:href="#m962a59e91a" x="529.727413" y="348.585" style="fill: #374151; stroke: #374151; stroke-width: 0.8"/>
      </g>
     </g>
     <g id="text_5">
      <text style="font-size: 10px; font-family: 'DejaVu Sans'; text-anchor: middle; fill: #374151" x="529.727413" y="363.182656" transform="rotate(-0 529.727413 363.182656)">8</text>
     </g>
    </g>
    <g id="xtick_6">
     <g id="line2d_11">
      <path d="M 663.455625 348.585 
L 663.455625 33.36 
" clip-path="url(#pe7d57135ec)" style="fill: none; stroke: #e5e7eb; stroke-linecap: square"/>
     </g>
     <g id="line2d_12">
      <g>
       <use xlink:href="#m962a59e91a" x="663.455625" y="348.585" style="fill: #374151; stroke: #374151; stroke-width: 0.8"/>
      </g>
     </g>
     <g id="text_6">
      <text style="font-size: 10px; font-family: 'DejaVu Sans'; text-anchor: middle; fill: #374151" x="663.455625" y="363.182656" transform="rotate(-0 663.455625 363.182656)">10</text>
     </g>
    </g>
    <g id="text_7">
     <!-- $n$ -->
     <g style="fill: #111827" transform="translate(358.407148 385.461953)">
      <text>
       <tspan x="0" y="-0.71875" style="font-style: oblique; font-size: 13px; font-family: 'DejaVu Sans'; fill: #111827">n</tspan>
      </text>
     </g>
    </g>
   </g>
   <g id="matplotlib.axis_2">
    <g id="ytick_1">
     <g id="line2d_13">
      <path d="M 61.678672 348.585 
L 663.455625 348.585 
" clip-path="url(#pe7d57135ec)" style="fill: none; stroke: #e5e7eb; stroke-linecap: square"/>
     </g>
     <g id="line2d_14">
      <defs>
       <path id="m46e0a94147" d="M 0 0 
L -3.5 0 
" style="stroke: #374151; stroke-width: 0.8"/>
      </defs>
      <g>
       <use xlink:href="#m46e0a94147" x="61.678672" y="348.585" style="fill: #374151; stroke: #374151; stroke-width: 0.8"/>
      </g>
     </g>
     <g id="text_8">
      <text style="font-size: 10px; font-family: 'DejaVu Sans'; text-anchor: end; fill: #374151" x="54.678672" y="352.383828" transform="rotate(-0 54.678672 352.383828)">0.00</text>
     </g>
    </g>
    <g id="ytick_2">
     <g id="line2d_15">
      <path d="M 61.678672 271.323971 
L 663.455625 271.323971 
" clip-path="url(#pe7d57135ec)" style="fill: none; stroke: #e5e7eb; stroke-linecap: square"/>
     </g>
     <g id="line2d_16">
      <g>
       <use xlink:href="#m46e0a94147" x="61.678672" y="271.323971" style="fill: #374151; stroke: #374151; stroke-width: 0.8"/>
      </g>
     </g>
     <g id="text_9">
      <text style="font-size: 10px; font-family: 'DejaVu Sans'; text-anchor: end; fill: #374151" x="54.678672" y="275.122799" transform="rotate(-0 54.678672 275.122799)">0.25</text>
     </g>
    </g>
    <g id="ytick_3">
     <g id="line2d_17">
      <path d="M 61.678672 194.062941 
L 663.455625 194.062941 
" clip-path="url(#pe7d57135ec)" style="fill: none; stroke: #e5e7eb; stroke-linecap: square"/>
     </g>
     <g id="line2d_18">
      <g>
       <use xlink:href="#m46e0a94147" x="61.678672" y="194.062941" style="fill: #374151; stroke: #374151; stroke-width: 0.8"/>
      </g>
     </g>
     <g id="text_10">
      <text style="font-size: 10px; font-family: 'DejaVu Sans'; text-anchor: end; fill: #374151" x="54.678672" y="197.861769" transform="rotate(-0 54.678672 197.861769)">0.50</text>
     </g>
    </g>
    <g id="ytick_4">
     <g id="line2d_19">
      <path d="M 61.678672 116.801912 
L 663.455625 116.801912 
" clip-path="url(#pe7d57135ec)" style="fill: none; stroke: #e5e7eb; stroke-linecap: square"/>
     </g>
     <g id="line2d_20">
      <g>
       <use xlink:href="#m46e0a94147" x="61.678672" y="116.801912" style="fill: #374151; stroke: #374151; stroke-width: 0.8"/>
      </g>
     </g>
     <g id="text_11">
      <text style="font-size: 10px; font-family: 'DejaVu Sans'; text-anchor: end; fill: #374151" x="54.678672" y="120.60074" transform="rotate(-0 54.678672 120.60074)">0.75</text>
     </g>
    </g>
    <g id="ytick_5">
     <g id="line2d_21">
      <path d="M 61.678672 39.540882 
L 663.455625 39.540882 
" clip-path="url(#pe7d57135ec)" style="fill: none; stroke: #e5e7eb; stroke-linecap: square"/>
     </g>
     <g id="line2d_22">
      <g>
       <use xlink:href="#m46e0a94147" x="61.678672" y="39.540882" style="fill: #374151; stroke: #374151; stroke-width: 0.8"/>
      </g>
     </g>
     <g id="text_12">
      <text style="font-size: 10px; font-family: 'DejaVu Sans'; text-anchor: end; fill: #374151" x="54.678672" y="43.33971" transform="rotate(-0 54.678672 43.33971)">1.00</text>
     </g>
    </g>
    <g id="text_13">
     <!-- $(1 - \lambda)\lambda^{n - 1}$ -->
     <g style="fill: #111827" transform="translate(19.29 227.8925) rotate(-90)">
      <text>
       <tspan x="0" y="-0.991938" style="font-size: 13px; font-family: 'DejaVu Sans'; fill: #111827">(</tspan>
       <tspan x="5.071777" y="-0.991938" style="font-size: 13px; font-family: 'DejaVu Sans'; fill: #111827">1</tspan>
       <tspan x="15.875488" y="-0.991938" style="font-size: 13px; font-family: 'DejaVu Sans'; fill: #111827">−</tspan>
       <tspan x="36.994141" y="-0.991938" style="font-size: 13px; font-family: 'DejaVu Sans'; fill: #111827">)</tspan>
       <tspan x="29.300781" y="-0.991938" style="font-style: oblique; font-size: 13px; font-family: 'DejaVu Sans'; fill: #111827">λ</tspan>
       <tspan x="42.065918" y="-0.991938" style="font-style: oblique; font-size: 13px; font-family: 'DejaVu Sans'; fill: #111827">λ</tspan>
       <tspan x="50.727064" y="-6.360938" style="font-style: oblique; font-size: 9.1px; font-family: 'DejaVu Sans'; fill: #111827">n</tspan>
       <tspan x="58.267445" y="-6.360938" style="font-size: 9.1px; font-family: 'DejaVu Sans'; fill: #111827">−</tspan>
       <tspan x="67.66515" y="-6.360938" style="font-size: 9.1px; font-family: 'DejaVu Sans'; fill: #111827">1</tspan>
      </text>
     </g>
    </g>
   </g>
   <g id="line2d_23">
    <path d="M 61.678672 39.540882 
L 61.678672 348.585 
L 663.455625 348.585 
" clip-path="url(#pe7d57135ec)" style="fill: none; stroke: #2563eb; stroke-width: 2.4; stroke-linecap: square"/>
   </g>
   <g id="line2d_24">
    <path d="M 61.678672 116.801912 
L 65.296569 133.551882 
L 68.914467 149.091403 
L 72.532364 163.50795 
L 76.150262 176.882675 
L 79.768159 189.290866 
L 83.386057 200.80237 
L 87.003954 211.481987 
L 90.621852 221.389834 
L 94.239749 230.581683 
L 97.857647 239.109277 
L 101.475545 247.020618 
L 105.093442 254.360241 
L 108.71134 261.16946 
L 112.329237 267.486606 
L 115.947135 273.347239 
L 119.565032 278.78435 
L 123.18293 283.828544 
L 126.800827 288.508215 
L 130.418725 292.849707 
L 134.036622 296.877457 
L 137.65452 300.61414 
L 141.272417 304.080788 
L 144.890315 307.296917 
L 148.508212 310.28063 
L 153.332076 313.926231 
L 158.155939 317.224863 
L 162.979802 320.20955 
L 167.803666 322.91017 
L 172.627529 325.353761 
L 177.451392 327.564783 
L 182.275256 329.565373 
L 188.305085 331.800515 
L 194.334914 333.772989 
L 200.364743 335.513662 
L 206.394572 337.049775 
L 213.630367 338.656737 
L 220.866162 340.039834 
L 229.307923 341.411867 
L 237.749684 342.563602 
L 247.397411 343.655227 
L 258.251103 344.648613 
L 270.310762 345.51944 
L 283.576386 346.256571 
L 299.253942 346.902719 
L 318.549395 347.457393 
L 341.462746 347.883802 
L 371.611892 348.209707 
L 415.026662 348.432435 
L 488.590579 348.551805 
L 663.455625 348.584116 
L 663.455625 348.584116 
" clip-path="url(#pe7d57135ec)" style="fill: none; stroke: #16a34a; stroke-width: 2.4; stroke-linecap: square"/>
   </g>
   <g id="line2d_25">
    <path d="M 61.678672 194.062941 
L 66.502535 201.600043 
L 71.326399 208.769508 
L 76.150262 215.589269 
L 80.974125 222.076383 
L 85.797989 228.247077 
L 90.621852 234.116783 
L 95.445715 239.700184 
L 101.475545 246.298027 
L 107.505374 252.496075 
L 113.535203 258.318555 
L 119.565032 263.788223 
L 125.594861 268.926458 
L 131.62469 273.753343 
L 137.65452 278.287745 
L 143.684349 282.547386 
L 149.714178 286.548915 
L 155.744007 290.307973 
L 161.773836 293.839252 
L 169.009631 297.795493 
L 176.245426 301.465833 
L 183.481222 304.870933 
L 190.717017 308.029961 
L 197.952812 310.9607 
L 205.188607 313.679647 
L 213.630367 316.604427 
L 222.072128 319.284134 
L 230.513889 321.739304 
L 240.161616 324.294331 
L 249.809343 326.606184 
L 259.457069 328.698008 
L 270.310762 330.814301 
L 281.164454 332.705387 
L 293.224113 334.571522 
L 305.283771 336.218354 
L 318.549395 337.807239 
L 333.020985 339.308679 
L 348.698541 340.700147 
L 365.582063 341.966158 
L 383.671551 343.097923 
L 404.17297 344.148492 
L 427.086321 345.086494 
L 452.411603 345.8943 
L 481.354783 346.591759 
L 515.121827 347.180452 
L 556.124665 347.666801 
L 607.981196 348.04862 
L 663.455625 348.283199 
L 663.455625 348.283199 
" clip-path="url(#pe7d57135ec)" style="fill: none; stroke: #f59e0b; stroke-width: 2.4; stroke-linecap: square"/>
   </g>
   <g id="line2d_26">
    <path d="M 61.678672 271.323971 
L 74.944296 275.610178 
L 88.20992 279.658599 
L 101.475545 283.482427 
L 115.947135 287.412348 
L 130.418725 291.10504 
L 144.890315 294.574822 
L 160.567871 298.097792 
L 176.245426 301.390966 
L 193.128948 304.697641 
L 210.01247 307.772632 
L 228.101958 310.828587 
L 246.191445 313.655717 
L 265.486898 316.438388 
L 284.782352 318.999376 
L 305.283771 321.497254 
L 326.991156 323.912589 
L 349.904507 326.228855 
L 374.023824 328.432504 
L 399.349106 330.512953 
L 425.880355 332.462497 
L 453.617569 334.276169 
L 483.766715 336.016916 
L 515.121827 337.603022 
L 548.88887 339.088026 
L 585.067846 340.457011 
L 624.864718 341.736101 
L 663.455625 342.78388 
L 663.455625 342.78388 
" clip-path="url(#pe7d57135ec)" style="fill: none; stroke: #dc2626; stroke-width: 2.4; stroke-linecap: square"/>
   </g>
   <g id="line2d_27">
    <path d="M 61.678672 317.680588 
L 115.947135 320.213478 
L 172.627529 322.637577 
L 232.925821 324.989458 
L 295.636044 327.209558 
L 361.964166 329.330847 
L 431.910184 331.340212 
L 505.4741 333.227679 
L 583.86188 335.012123 
L 663.455625 336.611998 
L 663.455625 336.611998 
" clip-path="url(#pe7d57135ec)" style="fill: none; stroke: #7c3aed; stroke-width: 2.4; stroke-linecap: square"/>
   </g>
   <g id="patch_3">
    <path d="M 61.678672 348.585 
L 61.678672 33.36 
" style="fill: none; stroke: #111827; stroke-width: 0.8; stroke-linejoin: miter; stroke-linecap: square"/>
   </g>
   <g id="patch_4">
    <path d="M 61.678672 348.585 
L 663.455625 348.585 
" style="fill: none; stroke: #111827; stroke-width: 0.8; stroke-linejoin: miter; stroke-linecap: square"/>
   </g>
   <g id="text_14">
    <!-- TD($\lambda$) weights for $n$-step targets -->
    <g style="fill: #111827" transform="translate(217.687148 19.36)">
     <text>
      <tspan x="0" y="-0.84375" style="font-weight: 700; font-size: 16px; font-family: 'DejaVu Sans'; fill: #111827">T</tspan>
      <tspan x="10.914062" y="-0.84375" style="font-weight: 700; font-size: 16px; font-family: 'DejaVu Sans'; fill: #111827">D</tspan>
      <tspan x="24.195312" y="-0.84375" style="font-weight: 700; font-size: 16px; font-family: 'DejaVu Sans'; fill: #111827">(</tspan>
      <tspan x="40.976562" y="-0.84375" style="font-weight: 700; font-size: 16px; font-family: 'DejaVu Sans'; fill: #111827">)</tspan>
      <tspan x="48.289062" y="-0.84375" style="font-weight: 700; font-size: 16px; font-family: 'DejaVu Sans'; fill: #111827"> </tspan>
      <tspan x="53.859375" y="-0.84375" style="font-weight: 700; font-size: 16px; font-family: 'DejaVu Sans'; fill: #111827">w</tspan>
      <tspan x="68.640625" y="-0.84375" style="font-weight: 700; font-size: 16px; font-family: 'DejaVu Sans'; fill: #111827">e</tspan>
      <tspan x="79.492188" y="-0.84375" style="font-weight: 700; font-size: 16px; font-family: 'DejaVu Sans'; fill: #111827">i</tspan>
      <tspan x="84.976562" y="-0.84375" style="font-weight: 700; font-size: 16px; font-family: 'DejaVu Sans'; fill: #111827">g</tspan>
      <tspan x="96.429688" y="-0.84375" style="font-weight: 700; font-size: 16px; font-family: 'DejaVu Sans'; fill: #111827">h</tspan>
      <tspan x="107.820312" y="-0.84375" style="font-weight: 700; font-size: 16px; font-family: 'DejaVu Sans'; fill: #111827">t</tspan>
      <tspan x="115.46875" y="-0.84375" style="font-weight: 700; font-size: 16px; font-family: 'DejaVu Sans'; fill: #111827">s</tspan>
      <tspan x="124.992188" y="-0.84375" style="font-weight: 700; font-size: 16px; font-family: 'DejaVu Sans'; fill: #111827"> </tspan>
      <tspan x="130.5625" y="-0.84375" style="font-weight: 700; font-size: 16px; font-family: 'DejaVu Sans'; fill: #111827">f</tspan>
      <tspan x="137.523438" y="-0.84375" style="font-weight: 700; font-size: 16px; font-family: 'DejaVu Sans'; fill: #111827">o</tspan>
      <tspan x="148.515625" y="-0.84375" style="font-weight: 700; font-size: 16px; font-family: 'DejaVu Sans'; fill: #111827">r</tspan>
      <tspan x="156.40625" y="-0.84375" style="font-weight: 700; font-size: 16px; font-family: 'DejaVu Sans'; fill: #111827"> </tspan>
      <tspan x="172.117188" y="-0.84375" style="font-weight: 700; font-size: 16px; font-family: 'DejaVu Sans'; fill: #111827">-</tspan>
      <tspan x="178.757812" y="-0.84375" style="font-weight: 700; font-size: 16px; font-family: 'DejaVu Sans'; fill: #111827">s</tspan>
      <tspan x="188.28125" y="-0.84375" style="font-weight: 700; font-size: 16px; font-family: 'DejaVu Sans'; fill: #111827">t</tspan>
      <tspan x="195.929688" y="-0.84375" style="font-weight: 700; font-size: 16px; font-family: 'DejaVu Sans'; fill: #111827">e</tspan>
      <tspan x="206.78125" y="-0.84375" style="font-weight: 700; font-size: 16px; font-family: 'DejaVu Sans'; fill: #111827">p</tspan>
      <tspan x="218.234375" y="-0.84375" style="font-weight: 700; font-size: 16px; font-family: 'DejaVu Sans'; fill: #111827"> </tspan>
      <tspan x="223.804688" y="-0.84375" style="font-weight: 700; font-size: 16px; font-family: 'DejaVu Sans'; fill: #111827">t</tspan>
      <tspan x="231.453125" y="-0.84375" style="font-weight: 700; font-size: 16px; font-family: 'DejaVu Sans'; fill: #111827">a</tspan>
      <tspan x="242.25" y="-0.84375" style="font-weight: 700; font-size: 16px; font-family: 'DejaVu Sans'; fill: #111827">r</tspan>
      <tspan x="250.140625" y="-0.84375" style="font-weight: 700; font-size: 16px; font-family: 'DejaVu Sans'; fill: #111827">g</tspan>
      <tspan x="261.59375" y="-0.84375" style="font-weight: 700; font-size: 16px; font-family: 'DejaVu Sans'; fill: #111827">e</tspan>
      <tspan x="272.445312" y="-0.84375" style="font-weight: 700; font-size: 16px; font-family: 'DejaVu Sans'; fill: #111827">t</tspan>
      <tspan x="280.09375" y="-0.84375" style="font-weight: 700; font-size: 16px; font-family: 'DejaVu Sans'; fill: #111827">s</tspan>
      <tspan x="31.507812" y="-0.84375" style="font-style: oblique; font-size: 16px; font-family: 'DejaVu Sans'; fill: #111827">λ</tspan>
      <tspan x="161.976562" y="-0.84375" style="font-style: oblique; font-size: 16px; font-family: 'DejaVu Sans'; fill: #111827">n</tspan>
     </text>
    </g>
   </g>
   <g id="legend_1">
    <g id="patch_5">
     <path d="M 576.005625 124.672891 
L 655.755625 124.672891 
Q 657.955625 124.672891 657.955625 122.472891 
L 657.955625 41.06 
Q 657.955625 38.86 655.755625 38.86 
L 576.005625 38.86 
Q 573.805625 38.86 573.805625 41.06 
L 573.805625 122.472891 
Q 573.805625 124.672891 576.005625 124.672891 
z
" style="fill: #ffffff; stroke: #d1d5db; stroke-linejoin: miter"/>
    </g>
    <g id="line2d_28">
     <path d="M 578.205625 47.77 
L 589.205625 47.77 
L 600.205625 47.77 
" style="fill: none; stroke: #2563eb; stroke-width: 2.4; stroke-linecap: square"/>
    </g>
    <g id="text_15">
     <!-- $\lambda = 0$ -->
     <g style="fill: #111827" transform="translate(609.005625 51.62)">
      <text>
       <tspan x="0" y="-0.640625" style="font-style: oblique; font-size: 11px; font-family: 'DejaVu Sans'; fill: #111827">λ</tspan>
       <tspan x="8.652832" y="-0.640625" style="font-size: 11px; font-family: 'DejaVu Sans'; fill: #111827">=</tspan>
       <tspan x="20.012695" y="-0.640625" style="font-size: 11px; font-family: 'DejaVu Sans'; fill: #111827">0</tspan>
      </text>
     </g>
    </g>
    <g id="line2d_29">
     <path d="M 578.205625 64.272578 
L 589.205625 64.272578 
L 600.205625 64.272578 
" style="fill: none; stroke: #16a34a; stroke-width: 2.4; stroke-linecap: square"/>
    </g>
    <g id="text_16">
     <!-- $\lambda = 0.25$ -->
     <g style="fill: #111827" transform="translate(609.005625 68.122578)">
      <text>
       <tspan x="0" y="-0.640625" style="font-style: oblique; font-size: 11px; font-family: 'DejaVu Sans'; fill: #111827">λ</tspan>
       <tspan x="8.652832" y="-0.640625" style="font-size: 11px; font-family: 'DejaVu Sans'; fill: #111827">=</tspan>
       <tspan x="20.012695" y="-0.640625" style="font-size: 11px; font-family: 'DejaVu Sans'; fill: #111827">0</tspan>
       <tspan x="27.01123" y="-0.640625" style="font-size: 11px; font-family: 'DejaVu Sans'; fill: #111827">.</tspan>
       <tspan x="30.507812" y="-0.640625" style="font-size: 11px; font-family: 'DejaVu Sans'; fill: #111827">2</tspan>
       <tspan x="37.506348" y="-0.640625" style="font-size: 11px; font-family: 'DejaVu Sans'; fill: #111827">5</tspan>
      </text>
     </g>
    </g>
    <g id="line2d_30">
     <path d="M 578.205625 80.775156 
L 589.205625 80.775156 
L 600.205625 80.775156 
" style="fill: none; stroke: #f59e0b; stroke-width: 2.4; stroke-linecap: square"/>
    </g>
    <g id="text_17">
     <!-- $\lambda = 0.5$ -->
     <g style="fill: #111827" transform="translate(609.005625 84.625156)">
      <text>
       <tspan x="0" y="-0.640625" style="font-style: oblique; font-size: 11px; font-family: 'DejaVu Sans'; fill: #111827">λ</tspan>
       <tspan x="8.652832" y="-0.640625" style="font-size: 11px; font-family: 'DejaVu Sans'; fill: #111827">=</tspan>
       <tspan x="20.012695" y="-0.640625" style="font-size: 11px; font-family: 'DejaVu Sans'; fill: #111827">0</tspan>
       <tspan x="27.01123" y="-0.640625" style="font-size: 11px; font-family: 'DejaVu Sans'; fill: #111827">.</tspan>
       <tspan x="30.507812" y="-0.640625" style="font-size: 11px; font-family: 'DejaVu Sans'; fill: #111827">5</tspan>
      </text>
     </g>
    </g>
    <g id="line2d_31">
     <path d="M 578.205625 97.277734 
L 589.205625 97.277734 
L 600.205625 97.277734 
" style="fill: none; stroke: #dc2626; stroke-width: 2.4; stroke-linecap: square"/>
    </g>
    <g id="text_18">
     <!-- $\lambda = 0.75$ -->
     <g style="fill: #111827" transform="translate(609.005625 101.127734)">
      <text>
       <tspan x="0" y="-0.640625" style="font-style: oblique; font-size: 11px; font-family: 'DejaVu Sans'; fill: #111827">λ</tspan>
       <tspan x="8.652832" y="-0.640625" style="font-size: 11px; font-family: 'DejaVu Sans'; fill: #111827">=</tspan>
       <tspan x="20.012695" y="-0.640625" style="font-size: 11px; font-family: 'DejaVu Sans'; fill: #111827">0</tspan>
       <tspan x="27.01123" y="-0.640625" style="font-size: 11px; font-family: 'DejaVu Sans'; fill: #111827">.</tspan>
       <tspan x="30.507812" y="-0.640625" style="font-size: 11px; font-family: 'DejaVu Sans'; fill: #111827">7</tspan>
       <tspan x="37.506348" y="-0.640625" style="font-size: 11px; font-family: 'DejaVu Sans'; fill: #111827">5</tspan>
      </text>
     </g>
    </g>
    <g id="line2d_32">
     <path d="M 578.205625 113.780313 
L 589.205625 113.780313 
L 600.205625 113.780313 
" style="fill: none; stroke: #7c3aed; stroke-width: 2.4; stroke-linecap: square"/>
    </g>
    <g id="text_19">
     <!-- $\lambda = 0.9$ -->
     <g style="fill: #111827" transform="translate(609.005625 117.630313)">
      <text>
       <tspan x="0" y="-0.640625" style="font-style: oblique; font-size: 11px; font-family: 'DejaVu Sans'; fill: #111827">λ</tspan>
       <tspan x="8.652832" y="-0.640625" style="font-size: 11px; font-family: 'DejaVu Sans'; fill: #111827">=</tspan>
       <tspan x="20.012695" y="-0.640625" style="font-size: 11px; font-family: 'DejaVu Sans'; fill: #111827">0</tspan>
       <tspan x="27.01123" y="-0.640625" style="font-size: 11px; font-family: 'DejaVu Sans'; fill: #111827">.</tspan>
       <tspan x="30.507812" y="-0.640625" style="font-size: 11px; font-family: 'DejaVu Sans'; fill: #111827">9</tspan>
      </text>
     </g>
    </g>
   </g>
  </g>
 </g>
 <defs>
  <clipPath id="pe7d57135ec">
   <rect x="61.678672" y="33.36" width="601.776953" height="315.225"/>
  </clipPath>
 </defs>
</svg>
